<svg xmlns="http://www.w3.org/2000/svg" width="500" height="200" version="1.1" stroke="white" fill="white" >
<path class="st0" d="M173.9,44.9c0.7,0,1.4,0,2.1,0c0.7,0,1.4,0,2.1,0H173.9z"></path>
<path class="st0" d="M352.1,44.3L352.1,44.3c-7.4-4.7-35.3-20.3-56.3-25l-0.2,0.1l-5.7,14l-0.2,0.1c0,0-28.2-7.9-64.5-10.9v-0.2
		c1.2-6.6,2.1-12.4,4.3-17.8c0,0-17.5-4.7-51.7-4.7h-3.3c-34.2,0-51.7,4.7-51.7,4.7c2.2,5.3,3.1,11.2,4.2,17.8v0.2
		c-36.4,3.1-64.5,10.9-64.5,10.9l-0.1-0.1l-5.7-14l-0.2-0.1C35.3,24,7.4,39.6,0,44.4l0,0c2.8,4.1,5.4,8.4,7.9,12.7h0L8,57.2
		c53-17,109.4-26.2,168-26.4c58.6,0.2,115,9.5,168,26.4l0.1-0.1h0C346.6,52.7,349.3,48.5,352.1,44.3z"></path>
<path class="st0" d="M176,35.7c-57.5,0.2-112.9,9.1-165,25.5l0,0.1h0c7.8,15,13.6,31.2,17.1,48.3l0,0H324v0
		c3.5-17.1,9.3-33.3,17.1-48.3h0l0-0.1C288.9,44.8,233.5,35.9,176,35.7z M330.8,62.1c-6.6,13.1-8.7,27-11.5,41.6H32.8
		C30,89.1,27.8,75.2,21.3,62.1l0,0c49.7-11.8,101.5-17,154.8-17.2c-0.7,0-1.4,0-2.1,0h4.2c-0.7,0-1.4,0-2.1,0
		C229.3,45.1,281.1,50.3,330.8,62.1L330.8,62.1z"></path>
<path class="st0" d="M138.5,77.4c0,11.3,16.5,20.5,36.9,20.5c20.4,0,36.9-9.2,36.9-20.5c0-11.3-16.5-20.5-36.9-20.5
		C155,57,138.5,66.1,138.5,77.4z M200.2,77.4c0,8.7-11.1,15.8-24.8,15.8c-13.7,0-24.8-7.1-24.8-15.8c0-8.7,11.1-15.8,24.8-15.8
		C189.1,61.6,200.2,68.7,200.2,77.4z"></path>
<path class="st0" d="M215.9,65.7l0.7,0l1,0h4.4c3.4,0,5.4,1.1,5.4,1.1l18.7,11l1,0.6c0.8,0.4,1.4,0.8,1.4,1.3
		c0,0.3-0.2,0.6-0.6,0.9l-1.2,0.7L231.7,90c0,0-3.6,1.7-6.5,1.7c-0.9,0-1.8,0-2.6,0l-6.6,0c-1.2,0-2.1,0.9-2.1,1.9
		c0,1.1,0.9,1.9,2.1,1.9l0.5,0h17.2h17.6l0.4,0c1.2,0,2.1-0.9,2.1-1.9s-0.9-1.9-2.1-1.9l-8.8,0c-0.3,0-0.7,0-1,0
		c-3.8,0,0.3-2.2,0.3-2.2l8.5-4.9l0.9-0.5l0.6-0.3c0.6-0.4,1-0.3,1.7-0.3c0.3,0,0.6,0.1,0.8,0.2l1.1,0.5l8.9,5.2
		c0,0,3.8,2.3,0.3,2.3h-0.3l-0.7,0l-2,0l-2.9,0c-1.2,0-2.1,0.9-2.1,1.9c0,1.1,0.9,1.9,2.1,1.9l0.7,0h17.5h17.3l0.3,0
		c1.2,0,2.1-0.9,2.1-1.9s-0.9-1.9-2.1-1.9l-0.9,0h-5c-3.4,0-5.5-1-5.5-1l-17.8-10.5l-1-0.6c-0.8-0.4-1.4-0.8-1.4-1.3
		c0-0.3,0.2-0.6,0.6-0.9l1.3-0.7l15.7-9.3c0,0,1.8-1.8,6.5-1.8c1.4,0,7.3,0,7.3,0c1.2,0,2.1-0.9,2.1-1.9c0-1.1-0.9-1.9-2.1-1.9l0,0
		h-17h-17.8l-1,0c-1.2,0-2.1,0.9-2.1,1.9s0.9,1.9,2.1,1.9l4.8,0h6.6c3.5,0-0.3,2.3-0.3,2.3l-9.4,5.4l-0.9,0.5l-0.6,0.2
		c-0.3,0.2-0.7,0.3-1,0.3c-0.4,0.1-1.2-0.1-1.5-0.2l-1.4-0.7l-9.4-5.5c0,0-3.8-2.3-0.3-2.3h0.3h5.7c1.2,0,2.1-0.9,2.1-1.9
		c0-1.1-0.9-1.9-2.1-1.9l0,0h-18.1h-16.7l-1,0c-1.2,0-2.1,0.9-2.1,1.9C213.8,64.9,214.7,65.7,215.9,65.7z"></path>
<path class="st0" d="M139.9,63.8c0-1.1-1-2-2.2-2l0,0h-16.3h-19.6l-1,0c-1.2,0-2.2,0.9-2.2,2c0,1.1,1,2,2.2,2l0.7,0
		c0,0,12,0,13.6,0l1.1,0h1c0,0,2.9-0.1,2.3,1.4L99.5,85.8l-0.4,0.5c-0.3,0.3-0.6,0.5-1,0.5c-0.4,0-0.7-0.2-1-0.5L96.8,86L76.5,67.1
		c-0.8-1.5,2.4-1.4,2.4-1.4l0.7,0c1.4,0,11.6,0,12.1,0c1.2,0,2.2-0.9,2.2-2s-1-2-2.2-2h-23H48.8l0,0c-1.2,0-2.1,0.9-2.1,2
		c0,1.1,1,2,2.1,2c0,0,6.5,0,7.9,0c1.8,0,1.8,0,3.4,1.4c1.3,1.2,22.8,20.9,30,27.5c0,0,0.7,0.3,1.4,0.3h6.8c0.5,0,1.1-0.3,1.1-0.3
		l29.5-27.3l0.4-0.4c0.7-0.9,1.6-1.2,2.6-1.2h3.2l2.6,0C138.9,65.8,139.9,64.9,139.9,63.8z"></path>
<path class="st0" d="M245.3,123.8c-0.4-0.1-0.9-0.2-1.4-0.2h-1v5.9h1.2c0.3,0,0.6,0,0.7,0c0.2,0,0.3,0,0.5-0.1
		c0.2-0.1,0.3-0.1,0.4-0.2c0.5-0.5,0.9-1.3,0.9-2.6c0-0.9-0.1-1.6-0.4-2C245.9,124.1,245.6,123.9,245.3,123.8z"></path>
<path class="st0" d="M122.3,123.5L122.3,123.5L122.3,123.5L122.3,123.5h-1v2.3h1c0.4,0,0.8,0,1.1-0.1c0.3-0.1,0.4-0.2,0.6-0.4
		c0.1-0.2,0.2-0.4,0.2-0.7c0-0.4-0.1-0.6-0.3-0.8C123.7,123.7,123.2,123.5,122.3,123.5z"></path>
<polygon class="st0" points="171.1,127.3 173.1,127.3 172.1,124.5 	"></polygon>
<path class="st0" d="M252.6,123c-0.2,0.4-0.3,0.8-0.3,1.3c0,0.5,0.1,0.9,0.3,1.3c0.2,0.3,0.3,0.5,0.6,0.6v-3.9
		C253,122.5,252.8,122.7,252.6,123z"></path>
<path class="st0" d="M199.4,123.8c-0.4-0.2-0.8-0.4-1.3-0.4c-0.4,0-0.7,0.1-1,0.2c-0.3,0.1-0.5,0.3-0.8,0.6c-0.2,0.2-0.4,0.6-0.5,1
		c-0.1,0.4-0.2,0.9-0.2,1.4c0,0.5,0.1,1,0.2,1.4c0.1,0.4,0.3,0.7,0.5,1c0.2,0.3,0.5,0.5,0.8,0.6c0.3,0.1,0.6,0.2,1,0.2
		c0.5,0,0.9-0.1,1.2-0.3c0.4-0.2,0.6-0.5,0.9-1c0.2-0.5,0.3-1.1,0.3-1.8c0-0.7-0.1-1.2-0.3-1.7C200,124.3,199.7,124,199.4,123.8z"></path>
<path class="st0" d="M256.1,122.1c-0.4-0.2-0.8-0.3-1.3-0.3s-0.9,0.1-1.3,0.3c-0.1,0.1-0.2,0.2-0.3,0.2h1.8c0.3,0,0.5,0,0.7,0.1
		c0.2,0.1,0.4,0.2,0.5,0.4c0.1,0.2,0.2,0.4,0.2,0.6c0,0.3-0.1,0.6-0.3,0.8c-0.1,0.1-0.2,0.2-0.4,0.3c0,0,0.1,0.1,0.1,0.1
		c0.1,0.1,0.2,0.3,0.4,0.6l0.4,0.8c0.1-0.1,0.3-0.3,0.4-0.5c0.2-0.4,0.3-0.8,0.3-1.3c0-0.5-0.1-0.9-0.3-1.3
		C256.8,122.6,256.5,122.3,256.1,122.1z"></path>
<polygon class="st0" points="99,127.3 101,127.3 100,124.5 	"></polygon>
<path class="st0" d="M29.1,114.1c0.8,4.3,1.4,11.4,1.8,15.9h0c26.3,5.8,66.9,13.4,144.9,13.4l0.5,0.1c78,0,118.6-7.7,144.9-13.5
		l0-0.9c0.5-4.5,1.1-10.6,1.8-15L29.1,114.1L29.1,114.1z M104.5,131.5c-0.2,0.2-0.5,0.4-0.9,0.4h0c-0.2,0-0.4,0-0.5-0.1
		c-0.1-0.1-0.3-0.2-0.4-0.3s-0.2-0.3-0.3-0.5c-0.1-0.1-0.1-0.3-0.2-0.4l0,0l0-0.1c0,0,0,0,0,0l-0.1-0.2h0l-0.3-0.9h-3.5l-0.4,1
		c-0.2,0.5-0.3,0.8-0.5,1c-0.2,0.3-0.5,0.4-0.9,0.4h0h-0.1l0,0c-0.3,0-0.6-0.1-0.8-0.4c-0.2-0.2-0.4-0.5-0.4-0.8
		c0-0.2,0-0.3,0.1-0.5c0-0.1,0.1-0.4,0.2-0.6l2.5-6.2c0.1-0.2,0.1-0.4,0.2-0.6c0.1-0.3,0.2-0.5,0.3-0.7c0.1-0.2,0.3-0.4,0.5-0.5
		c0.2-0.1,0.5-0.2,0.8-0.2c0,0,0,0,0,0s0,0,0,0c0.3,0,0.6,0.1,0.8,0.2c0.2,0.1,0.4,0.3,0.5,0.5c0.1,0.2,0.2,0.4,0.3,0.6
		c0.1,0.2,0.2,0.4,0.3,0.7l2.5,6.2c0.2,0.5,0.3,0.9,0.3,1.1C104.8,130.9,104.7,131.2,104.5,131.5z M116.1,122.8v7.6
		c0,0.4-0.1,0.8-0.3,1c-0.2,0.2-0.5,0.4-0.9,0.4h0l0,0c-0.3,0-0.6-0.1-0.8-0.4c-0.2-0.3-0.3-0.6-0.3-1v-4.2l-1,3.8
		c-0.1,0.4-0.2,0.7-0.2,0.9c-0.1,0.2-0.2,0.5-0.4,0.6c-0.2,0.2-0.6,0.3-0.9,0.3c-0.3,0-0.5-0.1-0.7-0.2c-0.2-0.1-0.4-0.3-0.5-0.5
		c-0.1-0.2-0.2-0.4-0.2-0.6c0-0.1-0.1-0.3-0.1-0.4l0,0l0-0.1c0,0,0,0,0,0l0-0.2l0,0l-0.9-3.6v4.2c0,0.4-0.1,0.8-0.3,1
		c-0.2,0.2-0.5,0.4-0.9,0.4h0h0l0,0c-0.3,0-0.6-0.1-0.8-0.4c-0.2-0.3-0.3-0.6-0.3-1v-7.6c0-0.5,0.1-0.9,0.5-1.1
		c0.3-0.2,0.6-0.3,1-0.3h0.6c0.4,0,0.7,0,0.9,0.1c0.2,0.1,0.4,0.3,0.5,0.5c0.1,0.2,0.2,0.5,0.3,0.9l1.1,4.2l1.1-4.2
		c0.1-0.4,0.2-0.7,0.3-0.9c0.1-0.2,0.3-0.4,0.5-0.5c0.2-0.1,0.5-0.1,0.9-0.1h0.6c0.4,0,0.8,0.1,1,0.3
		C116,121.9,116.1,122.3,116.1,122.8L116.1,122.8L116.1,122.8z M126.7,124.6L126.7,124.6v0.2l0,0c0,1-0.4,1.8-1,2.3
		c-0.7,0.6-1.7,0.8-2.9,0.8h-1.5v2.4c0,0.4-0.1,0.8-0.4,1.1c-0.2,0.3-0.6,0.4-0.9,0.4h0h0l0,0c-0.4,0-0.7-0.1-0.9-0.4
		c-0.2-0.3-0.3-0.6-0.3-1.1v0v-7.4c0-0.5,0.1-0.9,0.4-1.1c0.3-0.3,0.7-0.4,1.1-0.4h2.5c0.8,0,1.4,0.1,1.8,0.2
		c0.4,0.1,0.8,0.3,1.1,0.6s0.6,0.6,0.7,1C126.6,123.7,126.7,124.1,126.7,124.6L126.7,124.6z M136.4,130.6v0.2h0
		c0,0.2-0.1,0.5-0.3,0.6c-0.2,0.2-0.6,0.3-0.9,0.3h-4.7c-0.5,0-0.9-0.1-1.1-0.4c-0.3-0.3-0.4-0.7-0.4-1.1v-7.4
		c0-0.4,0.1-0.8,0.3-1.1c0.2-0.3,0.5-0.4,0.9-0.4h0c0,0,0,0,0,0h0c0.4,0,0.7,0.1,0.9,0.4c0.2,0.3,0.4,0.6,0.4,1.1v6.7h3.6
		c0.4,0,0.7,0.1,0.9,0.3C136.2,130,136.4,130.3,136.4,130.6L136.4,130.6z M140.9,130.3c0,0.4-0.1,0.8-0.4,1.1
		c-0.2,0.3-0.6,0.4-0.9,0.4h0h0l0,0c-0.3,0-0.6-0.1-0.9-0.4c-0.2-0.3-0.4-0.7-0.4-1.1v-7.6c0-0.4,0.1-0.8,0.4-1.1
		c0.2-0.3,0.5-0.4,0.9-0.4c0,0,0,0,0,0h0c0.4,0,0.7,0.1,0.9,0.4c0.2,0.3,0.4,0.6,0.4,1.1V130.3z M151,122.5L151,122.5L151,122.5
		c0,0.3-0.1,0.6-0.3,0.8c-0.2,0.2-0.4,0.2-0.7,0.3v0h-3.7v1.9h2.9c0.3,0,0.6,0.1,0.9,0.3c0.2,0.2,0.3,0.5,0.3,0.8v0v0.2h0
		c0,0.2-0.1,0.4-0.3,0.6c-0.2,0.2-0.5,0.3-0.9,0.3h-2.9v2.9c0,0.4-0.1,0.8-0.4,1.1c-0.2,0.2-0.6,0.4-0.9,0.4h0h0l0,0
		c-0.3,0-0.7-0.1-0.9-0.4c-0.2-0.3-0.4-0.7-0.4-1.1v-7.4c0-0.3,0-0.6,0.1-0.8c0.1-0.2,0.3-0.4,0.5-0.5c0.2-0.1,0.5-0.1,0.8-0.1h4.6
		c0.4,0,0.7,0.1,0.9,0.3C150.9,121.9,151,122.2,151,122.5L151,122.5L151,122.5z M155.4,130.3c0,0.4-0.1,0.8-0.4,1.1
		c-0.2,0.3-0.6,0.4-0.9,0.4h0h0l0,0c-0.3,0-0.6-0.1-0.9-0.4c-0.2-0.3-0.4-0.7-0.4-1.1v-7.6c0-0.4,0.1-0.8,0.4-1.1
		c0.2-0.3,0.5-0.4,0.9-0.4c0,0,0,0,0,0h0c0.4,0,0.7,0.1,0.9,0.4c0.2,0.3,0.4,0.6,0.4,1.1L155.4,130.3L155.4,130.3z M166.7,128.3
		c0,0.4-0.1,0.7-0.2,1.1c-0.2,0.4-0.4,0.8-0.8,1.1c-0.4,0.4-0.8,0.7-1.3,0.9c-0.5,0.2-1.2,0.3-1.9,0.3h0c-0.5,0-1,0-1.5-0.1
		c-0.4-0.1-0.9-0.3-1.2-0.5c-0.4-0.2-0.7-0.5-1-0.9c-0.3-0.3-0.5-0.7-0.7-1.1s-0.3-0.8-0.4-1.3c-0.1-0.5-0.1-0.9-0.1-1.4
		c0-0.8,0.1-1.5,0.4-2.2s0.6-1.2,1-1.7c0.5-0.5,1-0.8,1.6-1.1c0.6-0.2,1.2-0.4,1.9-0.4c0.8,0,1.6,0.2,2.2,0.5
		c0.6,0.3,1.1,0.7,1.5,1.2c0.4,0.5,0.5,1,0.5,1.5v0.1l0,0c0,0.3-0.1,0.5-0.3,0.7c-0.2,0.2-0.5,0.4-0.8,0.4h0c-0.3,0-0.6-0.1-0.8-0.3
		c-0.2-0.2-0.3-0.4-0.5-0.7c-0.2-0.5-0.5-0.8-0.8-1c-0.3-0.2-0.6-0.3-1.1-0.3c-0.7,0-1.2,0.3-1.7,0.8c-0.4,0.5-0.6,1.3-0.6,2.4
		c0,0.7,0.1,1.3,0.3,1.8s0.5,0.8,0.8,1c0.3,0.2,0.7,0.3,1.2,0.3c0.5,0,0.9-0.1,1.2-0.4c0.3-0.2,0.6-0.6,0.8-1.1
		c0.1-0.3,0.2-0.5,0.4-0.7c0.2-0.2,0.5-0.4,0.8-0.4c0,0,0,0,0,0h0c0.3,0,0.6,0.1,0.8,0.3C166.6,127.7,166.7,128,166.7,128.3
		L166.7,128.3z M176.9,130.7L176.9,130.7c0,0.3-0.1,0.5-0.4,0.8c-0.2,0.2-0.5,0.4-0.9,0.4h0c-0.2,0-0.4,0-0.5-0.1
		c-0.1-0.1-0.3-0.2-0.4-0.3c-0.1-0.1-0.2-0.3-0.3-0.5c-0.1-0.1-0.1-0.3-0.2-0.4h0l-0.1-0.2l0-0.1l0,0l-0.3-0.9h-3.5l-0.4,1
		c-0.2,0.5-0.3,0.8-0.5,1c-0.2,0.3-0.5,0.4-0.9,0.4h0h-0.1l0,0c-0.3,0-0.6-0.1-0.8-0.4c-0.2-0.2-0.4-0.5-0.4-0.8c0,0,0,0,0,0
		c0-0.2,0-0.3,0.1-0.5c0-0.1,0.1-0.4,0.2-0.6l2.5-6.2c0.1-0.2,0.2-0.4,0.2-0.6c0.1-0.3,0.2-0.5,0.4-0.7c0.1-0.2,0.3-0.4,0.5-0.5
		c0.2-0.1,0.5-0.2,0.8-0.2c0,0,0,0,0,0s0,0,0,0c0.3,0,0.6,0.1,0.8,0.2c0.2,0.1,0.4,0.3,0.5,0.5c0.1,0.2,0.2,0.4,0.3,0.6
		c0.1,0.2,0.2,0.4,0.3,0.8l2.5,6.2C176.8,130,176.9,130.3,176.9,130.7L176.9,130.7L176.9,130.7z M186.3,122.7L186.3,122.7
		c0,0.2-0.2,0.5-0.4,0.6c-0.2,0.2-0.6,0.3-0.9,0.3h-1.8v6.7c0,0.4-0.1,0.8-0.4,1.1c-0.2,0.2-0.6,0.4-0.9,0.4h0l0,0
		c-0.4,0-0.7-0.1-0.9-0.4c-0.2-0.3-0.4-0.7-0.4-1.1v-6.7h-1.8c-0.4,0-0.7-0.1-0.9-0.3c-0.2-0.2-0.3-0.5-0.3-0.8l0,0c0,0,0,0,0,0
		c0-0.3,0.1-0.6,0.4-0.8c0.2-0.2,0.6-0.3,0.9-0.3c0,0,0,0,0,0h6.2c0.4,0,0.7,0.1,1,0.3c0.2,0.2,0.3,0.5,0.3,0.8v0L186.3,122.7
		L186.3,122.7z M190.7,130.3c0,0.4-0.1,0.8-0.4,1.1c-0.2,0.3-0.6,0.4-0.9,0.4h0l0,0c-0.4,0-0.7-0.1-0.9-0.4
		c-0.2-0.2-0.3-0.5-0.3-0.9h0v-7.7c0,0,0,0,0,0c0-0.4,0.1-0.8,0.4-1.1c0.2-0.2,0.5-0.4,0.9-0.4c0,0,0,0,0,0l0,0h0l0,0
		c0.4,0,0.7,0.1,0.9,0.4c0.2,0.3,0.4,0.6,0.4,1.1L190.7,130.3L190.7,130.3z M203.1,126.6L203.1,126.6c0,0.8-0.1,1.5-0.3,2.1
		c-0.2,0.6-0.5,1.2-1,1.7s-1,0.9-1.6,1.1s-1.3,0.4-2.1,0.4h0l0,0c-0.8,0-1.5-0.1-2.1-0.4c-0.6-0.3-1.2-0.6-1.6-1.1
		c-0.4-0.5-0.8-1-1-1.7c-0.2-0.6-0.3-1.4-0.3-2.1v0c0,0,0,0,0,0c0-0.8,0.1-1.5,0.3-2.1c0.2-0.6,0.5-1.2,1-1.7c0.4-0.5,1-0.8,1.6-1.1
		c0.6-0.2,1.3-0.4,2.1-0.4c1,0,2,0.2,2.7,0.6c0.8,0.4,1.4,1.1,1.8,1.9C202.9,124.6,203.1,125.5,203.1,126.6L203.1,126.6L203.1,126.6
		L203.1,126.6z M213.7,130.3c0,0.9-0.5,1.6-1.3,1.6c-0.2,0-0.4,0-0.6-0.1c-0.2-0.1-0.3-0.2-0.5-0.3c-0.1-0.1-0.3-0.3-0.4-0.4
		c-0.1-0.1-0.2-0.3-0.3-0.5l-3.1-4.8v4.8l0,0c0,0.4-0.1,0.7-0.3,0.9c-0.2,0.2-0.5,0.4-0.9,0.4h0v-0.2l0,0v0.1l0,0c0,0,0,0,0,0l0,0
		l0,0c-0.3,0-0.6-0.1-0.8-0.4c-0.2-0.3-0.3-0.6-0.3-1V123c0-0.3,0-0.6,0.1-0.9c0.1-0.2,0.3-0.5,0.5-0.6c0.2-0.2,0.5-0.2,0.8-0.2
		c0,0,0,0,0,0c0.2,0,0.4,0,0.5,0.1c0.2,0.1,0.3,0.2,0.4,0.3c0.1,0.1,0.2,0.3,0.3,0.4c0.1,0.1,0.2,0.3,0.3,0.5l3.2,4.8v-4.7
		c0-0.4,0.1-0.8,0.3-1c0.2-0.2,0.5-0.4,0.9-0.4l0,0l0,0h0c0.3,0,0.7,0.1,0.9,0.4c0.2,0.3,0.3,0.6,0.3,1L213.7,130.3L213.7,130.3z
		 M228.8,130.7L228.8,130.7c0,0.2-0.2,0.5-0.4,0.6c-0.2,0.2-0.6,0.3-0.9,0.3h0h-4.7c-0.5,0-0.9-0.1-1.1-0.4
		c-0.3-0.3-0.4-0.7-0.4-1.1v-7.4c0-0.4,0.1-0.8,0.3-1.1c0.2-0.3,0.5-0.4,0.9-0.4c0,0,0,0,0,0c0,0,0,0,0,0h0c0.4,0,0.7,0.1,0.9,0.4
		c0.2,0.2,0.3,0.5,0.3,0.9h0v6.9h3.7c0.4,0,0.7,0.1,0.9,0.3c0.2,0.2,0.3,0.5,0.3,0.8v0L228.8,130.7L228.8,130.7z M238.5,122.5v0.2h0
		c0,0.2-0.2,0.5-0.3,0.6c-0.2,0.2-0.6,0.3-1,0.3h-1.8v6.7c0,0.4-0.1,0.8-0.3,1.1c-0.2,0.2-0.6,0.4-0.9,0.4h0l0,0
		c-0.3,0-0.7-0.1-0.9-0.4c-0.2-0.3-0.3-0.6-0.3-1.1c0,0,0,0,0,0v-6.7H231c-0.4,0-0.7-0.1-0.9-0.3c-0.2-0.2-0.3-0.5-0.3-0.8
		c0,0,0,0,0,0c0-0.3,0.1-0.6,0.4-0.8c0.2-0.2,0.6-0.3,0.9-0.3c0,0,0,0,0,0h6.2c0.4,0,0.7,0.1,1,0.3
		C238.4,121.9,238.5,122.2,238.5,122.5L238.5,122.5z M249,128.2c-0.1,0.5-0.3,1-0.5,1.4s-0.5,0.8-0.9,1.1c-0.3,0.2-0.6,0.5-0.9,0.6
		c-0.3,0.1-0.7,0.3-1.1,0.3c-0.4,0.1-0.8,0.1-1.2,0.1h-2.5c-0.4,0-0.7,0-1-0.2c-0.2-0.1-0.4-0.4-0.5-0.6c-0.1-0.2-0.1-0.5-0.1-0.8
		v-7.1c0-0.5,0.1-0.9,0.4-1.1c0.3-0.3,0.7-0.4,1.1-0.4h2.5c0.7,0,1.3,0.1,1.8,0.2c0.5,0.1,1,0.4,1.4,0.8c1.1,0.9,1.6,2.3,1.6,4.1v0
		C249.1,127.1,249.1,127.7,249,128.2z M254,130.3L254,130.3c0,0.4-0.2,0.7-0.4,0.9c-0.3,0.2-0.6,0.4-1,0.4h0v-0.2l-0.1,0.2l0-0.1
		v0.1l0,0c0,0,0,0,0,0c-0.3,0-0.7-0.1-0.9-0.4c-0.3-0.3-0.4-0.6-0.4-1c0,0,0,0,0,0s0,0,0,0c0-0.4,0.1-0.7,0.4-1
		c0.3-0.3,0.6-0.4,1-0.4h0h0c0.4,0,0.7,0.1,1,0.4c0.3,0.3,0.4,0.6,0.4,1v0V130.3z M257.9,126.1c-0.3,0.5-0.8,1-1.3,1.3
		c-0.5,0.3-1.2,0.5-1.8,0.5c-0.6,0-1.2-0.2-1.8-0.5c-0.5-0.3-1-0.8-1.3-1.3c-0.3-0.5-0.5-1.1-0.5-1.8c0-0.6,0.2-1.2,0.5-1.8
		c0.3-0.5,0.8-1,1.3-1.3c0.5-0.3,1.2-0.5,1.8-0.5c0.5,0,0.9,0.1,1.4,0.3c0.4,0.2,0.8,0.4,1.1,0.8s0.6,0.7,0.8,1.1
		c0.2,0.4,0.3,0.9,0.3,1.4C258.4,124.9,258.2,125.5,257.9,126.1z"></path>
<path class="st0" d="M255.2,123.8c0.1,0,0.1-0.1,0.1-0.3c0-0.1,0-0.1-0.1-0.2c-0.1,0-0.2-0.1-0.5-0.1h-0.5v0.6h0.4
		C254.9,123.9,255.1,123.8,255.2,123.8z"></path>
<path class="st0" d="M255.4,126.2l-0.3-0.6c-0.1-0.2-0.2-0.4-0.3-0.5s-0.2-0.2-0.2-0.2c-0.1,0-0.2,0-0.3,0h0v1.5h-0.2h-0.8
		c0.1,0.1,0.2,0.2,0.3,0.2c0.4,0.2,0.8,0.3,1.3,0.3c0.5,0,0.9-0.1,1.3-0.3c0.1-0.1,0.2-0.1,0.3-0.2h-0.9L255.4,126.2z"></path>
</svg>
