<svg id="epb7hzG8RiO1" xmlns="http://www.w3.org/2000/svg" xmlns:xlink="http://www.w3.org/1999/xlink" viewBox="0 0 512 512" shape-rendering="geometricPrecision" text-rendering="geometricPrecision"><style><![CDATA[#epb7hzG8RiO2_to {animation: epb7hzG8RiO2_to__to 3000ms linear 1 normal forwards}@keyframes epb7hzG8RiO2_to__to { 0% {transform: translate(71.739494px,128.323002px)} 6.666667% {transform: translate(71.739493px,220.088999px)} 100% {transform: translate(71.739493px,220.088999px)}} #epb7hzG8RiO5_to {animation: epb7hzG8RiO5_to__to 3000ms linear 1 normal forwards}@keyframes epb7hzG8RiO5_to__to { 0% {transform: translate(440.260513px,230.690002px)} 13.333333% {transform: translate(438.981015px,351.191775px)} 100% {transform: translate(438.981015px,351.191775px)}} #epb7hzG8RiO8_to {animation: epb7hzG8RiO8_to__to 3000ms linear 1 normal forwards}@keyframes epb7hzG8RiO8_to__to { 0% {transform: translate(254.72px,383.695062px)} 16.666667% {transform: translate(254.72px,35.828003px)} 100% {transform: translate(254.72px,35.828003px)}} #epb7hzG8RiO11_to {animation: epb7hzG8RiO11_to__to 3000ms linear 1 normal forwards}@keyframes epb7hzG8RiO11_to__to { 0% {transform: translate(254.720001px,168.906006px)} 16.666667% {transform: translate(256px,-168.906006px)} 100% {transform: translate(256px,-168.906006px)}} #epb7hzG8RiO14_to {animation: epb7hzG8RiO14_to__to 3000ms linear 1 normal forwards}@keyframes epb7hzG8RiO14_to__to { 0% {transform: translate(71.7395px,-90.189966px)} 6.666667% {transform: translate(71.7395px,0px)} 100% {transform: translate(71.7395px,0px)}} #epb7hzG8RiO17_to {animation: epb7hzG8RiO17_to__to 3000ms linear 1 normal forwards}@keyframes epb7hzG8RiO17_to__to { 0% {transform: translate(256px,666.493522px)} 16.666667% {transform: translate(256px,317.151352px)} 100% {transform: translate(256px,317.151352px)}} #epb7hzG8RiO20_to {animation: epb7hzG8RiO20_to__to 3000ms linear 1 normal forwards}@keyframes epb7hzG8RiO20_to__to { 0% {transform: translate(71.7395px,394.196px)} 6.666667% {transform: translate(71.739499px,489.342359px)} 100% {transform: translate(71.739499px,489.342359px)}} #epb7hzG8RiO23_to {animation: epb7hzG8RiO23_to__to 3000ms linear 1 normal forwards}@keyframes epb7hzG8RiO23_to__to { 0% {transform: translate(438.980999px,-37.276576px)} 13.333333% {transform: translate(440.260512px,90.816845px)} 100% {transform: translate(440.260512px,90.816845px)}} #epb7hzG8RiO26_to {animation: epb7hzG8RiO26_to__to 3000ms linear 1 normal forwards}@keyframes epb7hzG8RiO26_to__to { 0% {transform: translate(438.980988px,394.195984px)} 13.333333% {transform: translate(440.2605px,522.137141px)} 100% {transform: translate(440.2605px,522.137141px)}}]]></style><g id="epb7hzG8RiO2_to" transform="translate(71.739494,128.323002)"><g id="epb7hzG8RiO2" transform="translate(-71.739494,-128.323002)"><g id="epb7hzG8RiO3"><path id="epb7hzG8RiO4" d="M107.558,92.495L35.921,92.495C16.158,92.495,0.083,108.57,0.083,128.323C0.083,148.077,16.158,164.151,35.921,164.151L107.558,164.151C127.322,164.151,143.396,148.076,143.396,128.323C143.396,108.57,127.322,92.495,107.558,92.495ZM107.558,143.679L35.921,143.679C27.454,143.679,20.556,136.791,20.556,128.324C20.556,119.857,27.454,112.969,35.921,112.969L107.558,112.969C116.025,112.969,122.923,119.857,122.923,128.324C122.923,136.791,116.025,143.679,107.558,143.679Z" fill="rgb(0,0,0)" stroke="none" stroke-width="1"/></g></g></g><g id="epb7hzG8RiO5_to" transform="translate(440.260513,230.690002)"><g id="epb7hzG8RiO5" transform="translate(-440.260513,-230.690002)"><g id="epb7hzG8RiO6"><path id="epb7hzG8RiO7" d="M476.079,194.862L404.442,194.862C384.679,194.862,368.604,210.937,368.604,230.69C368.604,250.443,384.679,266.518,404.442,266.518L476.079,266.518C495.843,266.518,511.917,250.443,511.917,230.69C511.917,210.937,495.843,194.862,476.079,194.862ZM476.079,246.046L404.442,246.046C395.975,246.046,389.077,239.158,389.077,230.691C389.077,222.224,395.975,215.336,404.442,215.336L476.079,215.336C484.546,215.336,491.444,222.224,491.444,230.691C491.444,239.158,484.546,246.046,476.079,246.046Z" fill="rgb(0,0,0)" stroke="none" stroke-width="1"/></g></g></g><g id="epb7hzG8RiO8_to" transform="translate(254.72,383.695062)"><g id="epb7hzG8RiO8" transform="translate(-255.999504,-384.240997)"><g id="epb7hzG8RiO9"><path id="epb7hzG8RiO10" d="M291.818,348.413L220.181,348.413C200.418,348.413,184.343,364.488,184.343,384.241C184.343,403.994,200.418,420.069,220.181,420.069L291.818,420.069C311.582,420.069,327.656,403.994,327.656,384.241C327.657,364.487,311.582,348.413,291.818,348.413ZM291.818,399.596L220.181,399.596C211.714,399.596,204.816,392.708,204.816,384.241C204.816,375.774,211.714,368.886,220.181,368.886L291.818,368.886C300.285,368.886,307.183,375.774,307.183,384.241C307.183,392.708,300.286,399.596,291.818,399.596Z" fill="rgb(0,0,0)" stroke="none" stroke-width="1"/></g></g></g><g id="epb7hzG8RiO11_to" transform="translate(254.720001,168.906006)"><g id="epb7hzG8RiO11" transform="translate(-254.720001,-168.906006)"><g id="epb7hzG8RiO12"><path id="epb7hzG8RiO13" d="M254.72,0C249.062,0,244.483,4.583,244.483,10.237L244.483,327.575C244.483,333.228,249.062,337.812,254.72,337.812C260.378,337.812,264.957,333.229,264.957,327.575L264.957,10.237C264.957,4.583,260.378,0,254.72,0Z" fill="rgb(0,0,0)" stroke="none" stroke-width="1"/></g></g></g><g id="epb7hzG8RiO14_to" transform="translate(71.7395,-90.189966)"><g id="epb7hzG8RiO14" transform="translate(-254.720001,-168.906006)"><g id="epb7hzG8RiO15"><path id="epb7hzG8RiO16" d="M254.72,0C249.062,0,244.483,4.583,244.483,10.237L244.483,327.575C244.483,333.228,249.062,337.812,254.72,337.812C260.378,337.812,264.957,333.229,264.957,327.575L264.957,10.237C264.957,4.583,260.378,0,254.72,0Z" fill="rgb(0,0,0)" stroke="none" stroke-width="1"/></g></g></g><g id="epb7hzG8RiO17_to" transform="translate(256,666.493522)"><g id="epb7hzG8RiO17" transform="scale(1,1.39283) translate(-254.720001,-168.906006)"><g id="epb7hzG8RiO18"><path id="epb7hzG8RiO19" d="M254.72,0C249.062,0,244.483,4.583,244.483,10.237L244.483,327.575C244.483,333.228,249.062,337.812,254.72,337.812C260.378,337.812,264.957,333.229,264.957,327.575L264.957,10.237C264.957,4.583,260.378,0,254.72,0Z" fill="rgb(0,0,0)" stroke="none" stroke-width="1"/></g></g></g><g id="epb7hzG8RiO20_to" transform="translate(71.7395,394.196)"><g id="epb7hzG8RiO20" transform="scale(1,1.260153) translate(-70.459999,-343.012497)"><g id="epb7hzG8RiO21"><path id="epb7hzG8RiO22" d="M70.46,174.024C64.802,174.024,60.223,178.607,60.223,184.261L60.223,501.764C60.223,507.417,64.802,512.001,70.46,512.001C76.118,512.001,80.697,507.418,80.697,501.764L80.697,184.261C80.697,178.607,76.118,174.024,70.46,174.024Z" fill="rgb(0,0,0)" stroke="none" stroke-width="1"/></g></g></g><g id="epb7hzG8RiO23_to" transform="translate(438.980999,-37.276576)"><g id="epb7hzG8RiO23" transform="scale(1,1.260153) translate(-70.459999,-343.012497)"><g id="epb7hzG8RiO24"><path id="epb7hzG8RiO25" d="M70.46,174.024C64.802,174.024,60.223,178.607,60.223,184.261L60.223,501.764C60.223,507.417,64.802,512.001,70.46,512.001C76.118,512.001,80.697,507.418,80.697,501.764L80.697,184.261C80.697,178.607,76.118,174.024,70.46,174.024Z" fill="rgb(0,0,0)" stroke="none" stroke-width="1"/></g></g></g><g id="epb7hzG8RiO26_to" transform="translate(438.980988,394.195984)"><g id="epb7hzG8RiO26" transform="translate(-438.980988,-394.195984)"><g id="epb7hzG8RiO27"><path id="epb7hzG8RiO28" d="M438.981,276.391C433.323,276.391,428.744,280.974,428.744,286.628L428.744,501.764C428.744,507.417,433.323,512.001,438.981,512.001C444.639,512.001,449.218,507.418,449.218,501.764L449.218,286.628C449.218,280.974,444.639,276.391,438.981,276.391Z" fill="rgb(0,0,0)" stroke="none" stroke-width="1"/></g></g></g></svg>